<svg width="30" height="30" viewBox="0 0 30 30" fill="none" xmlns="http://www.w3.org/2000/svg">
<path d="M21.5644 24.3677V4.2196C21.5633 3.84698 21.4148 3.48992 21.1513 3.22643C20.8878 2.96294 20.5308 2.81444 20.1581 2.81335H4.22062C3.84799 2.81444 3.49093 2.96294 3.22745 3.22643C2.96396 3.48992 2.81545 3.84698 2.81437 4.2196V24.8446C2.81622 25.4656 3.06375 26.0607 3.50289 26.4998C3.94202 26.939 4.53709 27.1865 5.15812 27.1884H24.3769" stroke="#4F438B" stroke-width="2" stroke-linejoin="round"/>
<path d="M24.377 27.1874C23.6311 27.1874 22.9157 26.8911 22.3883 26.3636C21.8608 25.8362 21.5645 25.1208 21.5645 24.3749V7.49988H25.7833C26.1562 7.49988 26.5139 7.64804 26.7776 7.91176C27.0414 8.17548 27.1895 8.53317 27.1895 8.90613V24.3749C27.1895 25.1208 26.8932 25.8362 26.3658 26.3636C25.8383 26.8911 25.1229 27.1874 24.377 27.1874Z" stroke="#4F438B" stroke-width="2" stroke-linejoin="round"/>
<path d="M14.0625 7.49988H17.8153" stroke="#4F438B" stroke-width="2" stroke-linecap="round" stroke-linejoin="round"/>
<path d="M14.0625 11.2493H17.8153" stroke="#4F438B" stroke-width="2" stroke-linecap="round" stroke-linejoin="round"/>
<path d="M6.56467 15.0005H17.8163" stroke="#4F438B" stroke-width="2" stroke-linecap="round" stroke-linejoin="round"/>
<path d="M6.56467 18.751H17.8163" stroke="#4F438B" stroke-width="2" stroke-linecap="round" stroke-linejoin="round"/>
<path d="M6.56467 22.5H17.8163" stroke="#4F438B" stroke-width="2" stroke-linecap="round" stroke-linejoin="round"/>
<path d="M10.3172 12.1914H6.56449C6.31566 12.1914 6.07703 12.0925 5.90109 11.9166C5.72514 11.7407 5.6263 11.502 5.6263 11.2532V7.50045C5.6263 7.25162 5.72514 7.01299 5.90109 6.83705C6.07703 6.6611 6.31566 6.56226 6.56449 6.56226H10.3172C10.5661 6.56226 10.8047 6.6611 10.9806 6.83705C11.1566 7.01299 11.2554 7.25162 11.2554 7.50045V11.2532C11.2554 11.502 11.1566 11.7407 10.9806 11.9166C10.8047 12.0925 10.5661 12.1914 10.3172 12.1914Z" fill="#4F438B"/>
</svg>
